<?xml version="1.0" encoding="utf-8"?>
<!-- Generator: Adobe Illustrator 26.0.3, SVG Export Plug-In . SVG Version: 6.00 Build 0)  -->
<svg version="1.1" id="Layer_1" xmlns="http://www.w3.org/2000/svg" xmlns:xlink="http://www.w3.org/1999/xlink" x="0px" y="0px"
	 viewBox="0 0 64 72" style="enable-background:new 0 0 64 72;" xml:space="preserve">
<style type="text/css">
	.st0{fill-rule:evenodd;clip-rule:evenodd;fill:#9E9E9E;}
	.st1{fill-rule:evenodd;clip-rule:evenodd;fill:#FFFFFF;}
	.st2{fill-rule:evenodd;clip-rule:evenodd;fill:url(#SVGID_1_);}
	.st3{fill-rule:evenodd;clip-rule:evenodd;fill:#DBDCDC;}
	.st4{fill-rule:evenodd;clip-rule:evenodd;fill:url(#SVGID_00000135668962447477802640000011467705905233526168_);}
	.st5{fill-rule:evenodd;clip-rule:evenodd;fill:url(#SVGID_00000111873907303880931040000007010036162822116996_);}
	.st6{fill-rule:evenodd;clip-rule:evenodd;fill:url(#SVGID_00000093178179695766573200000007171424791106836102_);}
</style>
<g>
	<g>
		<g>
			<path class="st0" d="M33.1,8c-0.4-0.6-0.8-1.1-1.3-1.5c-1.4,2.4-2.6,6.1-3,11l1.9-0.2C31.1,13.2,32,10.1,33.1,8z"/>
		</g>
		<g>
			<path class="st0" d="M55.1,20.7l-3.2,0.4l-3.3-3.6l-1.3,0.1l0-0.1L40,17.8c0,0,0,0,0,0.1l-0.9,0c-0.8-5.7-2.4-9.8-4.2-12.3
				C36.6,4,38.4,4.2,40,5.8c1.9,1.7,3.5,5.4,4.4,10.8l1.9-0.1c-1-6-2.8-10.1-5-12.2C38.9,2,36,1.8,33.6,4.1c-2.5-2.2-5.5-2-7.8,0.5
				c-2.2,2.4-4,7.1-4.5,14l-5.7,0.3c-0.8,3.5-1.4,7-1.9,10.6c0,0.2-0.1,0.3-0.1,0.4c-0.1,0.6-0.2,1.4-0.3,2.5
				c-0.3,2.4-0.6,4.8-0.8,7.2l-7.1,2.6l0.5,2.6l6,3.6c0,0.6-0.1,1.1-0.1,1.7L2.5,60.5L3,63.1l7.8,7.4l4.9-5.5c1,0.3,2,0.5,3,0.8
				l0.1-0.1c3,0.7,6,1.3,9,1.8l0,0c0.6,0.1,1.1,0.2,1.7,0.3l0,0c7.4,1.1,15,1.6,22.7,1.8l1.2,0.1l2.1-3.4l0,0.1l2.5-4.1l4.5-0.4
				L55.1,20.7z M27.2,5.8c1.7-1.8,3.6-1.9,5.4-0.1c2.1,2.1,3.8,6.1,4.6,12.2l-13.1,0.6c0,0,0,0,0,0l-0.8,0
				C23.7,12.2,25.2,7.9,27.2,5.8z"/>
		</g>
	</g>
	<g>
		<path class="st1" d="M54.1,19.7l-3.2,0.4l-3.3-3.6l-33,1.4c0,0-1.7,8.8-2,11c-0.3,2.2-1.1,9.7-1.1,9.7l-7.1,2.6l9,5L1.5,59.5
			l7.7,7.3l12-13.4l5.7,9l4.4-19.3l12.4,18.4l7.5,7.1l1.2,0.1l4.6-7.4l4.5-0.4L54.1,19.7z"/>
		<g>
			
				<radialGradient id="SVGID_1_" cx="25.5742" cy="87.7239" r="106.8716" gradientTransform="matrix(-0.9743 0 0 -1 55.6291 74)" gradientUnits="userSpaceOnUse">
				<stop  offset="0" style="stop-color:#FFFFFF"/>
				<stop  offset="0.5" style="stop-color:#F7B525"/>
				<stop  offset="1" style="stop-color:#C71B23"/>
			</radialGradient>
			<path class="st2" d="M4.9,43.8l-0.5-2.6c3,1.7,6,3.3,9,5l-2.6,3c0-0.6,0.1-1.2,0.1-1.8L4.9,43.8z M51.2,68.6l-4.9-52.1L39,16.8
				c0.2,1.6,0.3,3.1,0.4,4.7c0.3,0.4,0.5,1,0.5,1.5c0,1.3-1,2.4-2.3,2.4s-2.3-1.1-2.3-2.4c0-0.9,0.5-1.8,1.3-2.1
				c0,0.7,0.1,1.4,0.1,2.2c0,0.5,0.4,1,1,0.9c0.5,0,0.9-0.5,0.9-1c-0.2-9-2.2-15.1-4.7-18.4C35.6,3,37.4,3.2,39,4.8
				c1.9,1.7,3.5,5.4,4.4,10.8l1.9-0.1c-1-6-2.8-10.1-5-12.2C37.9,1,35,0.8,32.6,3.1c-2.5-2.2-5.5-2-7.8,0.5c-2.2,2.4-4,7.1-4.5,14
				l-5.7,0.3c-1.5,6.7-2.5,13.6-3.1,20.7L34,31.1l-7.1,31.3l-5.7-9c-4,4.5-8,8.9-12,13.4l-7.7-7.3L2,62.1l7.8,7.4l4.9-5.5
				C26.4,67.1,38.7,68.2,51.2,68.6L51.2,68.6z M36.2,16.9l-13.1,0.6c-0.1,1.5-0.2,3.1-0.2,4.6c0.3,0.4,0.5,0.9,0.5,1.5
				c0,1.3-1,2.4-2.3,2.4s-2.3-1.1-2.3-2.4c0-1,0.6-1.8,1.4-2.2c0,0.7,0,1.4,0,2.2c0,0.5,0.4,0.9,1,0.9c0.5,0,0.9-0.5,0.9-1
				c-0.2-9.8,1.6-16,4.1-18.7c1.7-1.8,3.6-1.9,5.4-0.1C33.7,6.8,35.4,10.8,36.2,16.9L36.2,16.9z"/>
		</g>
		<g>
			<path class="st3" d="M29.7,16.3c0.4-4.1,1.3-7.2,2.4-9.3c-0.4-0.6-0.8-1.1-1.3-1.5c-1.4,2.4-2.6,6.1-3,11L29.7,16.3z"/>
		</g>
		<g>
			<polygon class="st3" points="47.6,16.5 52.4,68.7 55.3,51.5 60.4,59.2 56,54 54.5,65.4 57,61.3 61.5,60.9 54.1,19.7 50.9,20.1 
							"/>
		</g>
		<g>
			<polygon class="st3" points="32.7,32.6 6,62.5 2.8,59.6 15.1,45.8 6.9,41.3 			"/>
		</g>
		<g>
			
				<radialGradient id="SVGID_00000065772862196496875760000000887561028594994087_" cx="32.1555" cy="21.7359" r="12.4256" gradientTransform="matrix(-0.9743 0 0 -1 55.6291 74)" gradientUnits="userSpaceOnUse">
				<stop  offset="0" style="stop-color:#FFFFFF"/>
				<stop  offset="0.5" style="stop-color:#F7B525"/>
				<stop  offset="1" style="stop-color:#C71B23"/>
			</radialGradient>
			<path style="fill-rule:evenodd;clip-rule:evenodd;fill:url(#SVGID_00000065772862196496875760000000887561028594994087_);" d="
				M14.7,64l7.2-7.8l5.7,9l6.3-27.5l-5.4,29.1c-0.6-0.1-1.1-0.2-1.7-0.3l-4.4-6.9l-4.7,5.2C16.7,64.5,15.7,64.3,14.7,64L14.7,64z"/>
		</g>
		<g>
			
				<linearGradient id="SVGID_00000124857507998207320210000006507497960968390024_" gradientUnits="userSpaceOnUse" x1="-3.3392" y1="-9.682725e-02" x2="26.7487" y2="26.8367" gradientTransform="matrix(-1 0 0 -1 63.86 74)">
				<stop  offset="0" style="stop-color:#FFFFFF"/>
				<stop  offset="1" style="stop-color:#FFFFFF;stop-opacity:0"/>
			</linearGradient>
			<path style="fill-rule:evenodd;clip-rule:evenodd;fill:url(#SVGID_00000124857507998207320210000006507497960968390024_);" d="
				M29.7,65.5c8.3-8.2,14.7-18.8,16.5-35.2L49.6,67C42.9,66.9,36.3,66.4,29.7,65.5L29.7,65.5z"/>
		</g>
		<g>
			
				<linearGradient id="SVGID_00000011009199013702261420000009447774724285579449_" gradientUnits="userSpaceOnUse" x1="61.8311" y1="62.56" x2="44.2431" y2="42.5291" gradientTransform="matrix(-1 0 0 -1 63.86 74)">
				<stop  offset="0" style="stop-color:#FFFFFF"/>
				<stop  offset="1" style="stop-color:#FFFFFF;stop-opacity:0"/>
			</linearGradient>
			<path style="fill-rule:evenodd;clip-rule:evenodd;fill:url(#SVGID_00000011009199013702261420000009447774724285579449_);" d="
				M19.6,19.2c-3,5-4.9,11-6.3,17.3c0.6-5.7,1.5-11.4,2.7-17.1L19.6,19.2z"/>
		</g>
	</g>
</g>
</svg>
