<?xml version="1.0" encoding="utf-8"?>
<!-- Generator: Adobe Illustrator 26.0.3, SVG Export Plug-In . SVG Version: 6.00 Build 0)  -->
<svg version="1.1" id="Layer_1" xmlns="http://www.w3.org/2000/svg" xmlns:xlink="http://www.w3.org/1999/xlink" x="0px" y="0px"
	 viewBox="0 0 70 56" style="enable-background:new 0 0 70 56;" xml:space="preserve">
<style type="text/css">
	.st0{fill:#FFFFFF;}
	.st1{fill:#DBDBDB;}
</style>
<g>
	<g>
		<path class="st0" d="M6.8,5.1L7,7.2c1.2-1.6,2.9-2.4,5.1-2.4c1.9,0,3.3,0.6,4.2,1.7c0.9,1.1,1.4,2.8,1.4,5V23h-5.6V11.7
			c0-0.9-0.2-1.6-0.5-2c-0.4-0.4-1-0.6-2-0.6c-1.1,0-1.9,0.4-2.4,1.3V23H1.6V5.1H6.8z"/>
		<path class="st0" d="M28.2,23.3c-2.7,0-5-0.8-6.7-2.5S19,17.1,19,14.5V14c0-1.8,0.3-3.5,1-4.9c0.7-1.4,1.7-2.5,3-3.3
			s2.8-1.2,4.6-1.2c2.5,0,4.5,0.8,6,2.3c1.5,1.6,2.2,3.7,2.2,6.5v2.2H24.7c0.2,1,0.6,1.8,1.3,2.4s1.5,0.9,2.6,0.9
			c1.8,0,3.1-0.6,4.1-1.9l2.6,3c-0.7,1-1.7,1.7-3,2.3C31.1,23.1,29.7,23.3,28.2,23.3z M27.6,9.1c-1.6,0-2.6,1.1-2.9,3.2h5.6v-0.4
			c0-0.9-0.2-1.6-0.7-2.1C29.2,9.3,28.5,9.1,27.6,9.1z"/>
	</g>
	<path class="st0" d="M64.9,5.1v5.4h3.6v4.7h-3.6v4.5c0,0.8,0.1,1.4,0.4,1.7c0.3,0.3,0.9,0.5,1.7,0.5c0.7,0,1.2,0,1.7-0.1v4.8
		c-1.2,0.4-2.5,0.6-3.8,0.6c-2.3,0-4-0.5-5.1-1.6s-1.7-2.8-1.7-5v-5.3h-2.8v-4.7h2.8V5.1H64.9z"/>
	<path class="st0" d="M34.8,45.2c0-1.8,0.3-3.4,1-4.8c0.7-1.4,1.7-2.5,3-3.2s2.8-1.1,4.6-1.1c2.7,0,4.8,0.8,6.3,2.5
		c1.5,1.7,2.3,3.9,2.3,6.8v0.2c0,2.8-0.8,5-2.3,6.7c-1.6,1.6-3.7,2.5-6.3,2.5c-2.6,0-4.6-0.8-6.1-2.3s-2.4-3.6-2.5-6.2L34.8,45.2z
		 M40.4,45.6c0,1.7,0.3,2.9,0.8,3.6c0.5,0.8,1.3,1.2,2.3,1.2c2,0,3-1.5,3-4.6v-0.6c0-3.2-1-4.8-3.1-4.8c-1.9,0-2.9,1.4-3,4.2
		L40.4,45.6z"/>
	<path class="st0" d="M63.6,52.4c-1.2,1.5-2.8,2.3-4.8,2.3c-2,0-3.5-0.6-4.5-1.7c-1-1.1-1.5-2.8-1.5-4.9V36.4h5.6v11.6
		c0,1.5,0.7,2.3,2.2,2.3c1.3,0,2.2-0.5,2.7-1.4V36.4H69v17.9h-5.2L63.6,52.4z"/>
	<g>
		<polygon class="st1" points="33.3,31.5 29.6,37.7 25.8,31.5 19.2,31.5 25.6,44.4 19,55.6 25.7,55.6 40,31.5 		"/>
		<polygon class="st1" points="48.7,16.8 55.8,4.8 49.2,4.8 45.3,11.3 41.3,4.8 34.7,4.8 42,16.8 34.8,28.9 41.5,28.9 45.4,22.4 
			49.3,28.9 56,28.9 		"/>
	</g>
	<circle class="st0" cx="45.3" cy="3.6" r="3.2"/>
	<circle class="st0" cx="29.6" cy="30.3" r="3.2"/>
	<g>
		<path class="st0" d="M18.3,55.6H1.5V52l7.8-8.1c1.9-2.2,2.9-3.9,2.9-5.2c0-1-0.2-1.8-0.7-2.4s-1.1-0.8-2-0.8
			c-0.9,0-1.5,0.4-2.1,1.1s-0.8,1.6-0.8,2.7H1c0-1.5,0.4-2.8,1.1-4.1s1.8-2.2,3.1-2.9s2.8-1.1,4.4-1.1c2.6,0,4.6,0.6,6,1.8
			c1.4,1.2,2.1,2.9,2.1,5.2c0,0.9-0.2,1.9-0.5,2.8s-0.9,1.8-1.6,2.8c-0.7,1-1.9,2.3-3.6,4l-3.1,3.6h9.5V55.6z"/>
	</g>
</g>
</svg>
